<?xml version="1.0" standalone="no"?><!DOCTYPE svg PUBLIC "-//W3C//DTD SVG 1.1//EN" "http://www.w3.org/Graphics/SVG/1.1/DTD/svg11.dtd"><svg t="1741440594057" class="icon" viewBox="0 0 1181 1024" version="1.1" xmlns="http://www.w3.org/2000/svg" p-id="7976" xmlns:xlink="http://www.w3.org/1999/xlink" width="230.6640625" height="200"><path d="M643.524818 839.800767a51.238106 51.238106 0 0 1-48.189614-33.767905l-32.067785-94.268735a5.862484 5.862484 0 0 0-5.33486-3.869239H388.448159a5.862484 5.862484 0 0 0-5.452109 3.751989l-34.119655 94.972233a51.296731 51.296731 0 0 1-96.320604-35.174901l175.874506-489.107002a51.238106 51.238106 0 0 1 96.672354 0.762123l167.139405 489.576001a51.413981 51.413981 0 0 1-48.893112 67.125436zM471.460926 402.928494a5.862484 5.862484 0 0 0-5.569359 3.751989l-53.3486 209.876911a5.862484 5.862484 0 0 0 5.452109 7.797103h108.690445a5.862484 5.862484 0 0 0 4.748612-2.462243 10.493846 10.493846 0 0 0 0.703498-5.33486l-55.28322-209.876911a5.862484 5.862484 0 0 0-5.569359-3.751989z m385.399668 418.991698a50.417358 50.417358 0 0 1-51.120856-49.420736V284.564951a51.238106 51.238106 0 0 1 102.417587 0v488.051755a50.534608 50.534608 0 0 1-51.238106 49.244862z" p-id="7977" fill="#bfbfbf"></path><path d="M243.527566 0H0v320.44335h83.892139V80.374649h159.694052z" p-id="7978" fill="#bfbfbf"></path><path d="M243.527566 1023.941375H0V703.498025h83.892139v240.068701h159.694052z" p-id="7979" fill="#bfbfbf"></path><path d="M937.997366 0h243.527567v320.44335h-83.833515V80.374649H937.997366z" p-id="7980" fill="#bfbfbf"></path><path d="M937.997366 1024h243.527567v-320.44335h-83.833515v240.068701H937.997366z" p-id="7981" fill="#bfbfbf"></path></svg>