<?xml version="1.0" standalone="no"?><!DOCTYPE svg PUBLIC "-//W3C//DTD SVG 1.1//EN" "http://www.w3.org/Graphics/SVG/1.1/DTD/svg11.dtd"><svg t="1738899446863" class="icon" viewBox="0 0 1176 1024" version="1.1" xmlns="http://www.w3.org/2000/svg" p-id="5356" xmlns:xlink="http://www.w3.org/1999/xlink" width="229.6875" height="200"><path d="M587.010926 1023.656229C216.49408 1020.552046 0 884.509257 0 587.195246c0-77.268114 14.943086-152.49408 43.625326-222.496183 3.835611-9.362286 0.267703-36.773303-12.802926-102.724754l-0.937691-4.739658C12.987246 171.756983 9.915246 140.726857 25.898423 118.100846 50.551954 83.202926 80.925257 83.612526 161.016686 101.223863l4.575817 1.00352c50.039954 10.952411 73.034606 12.099291 86.334903 2.833554C349.565806 37.043931 465.634743 0 587.195246 0c126.32064 0 246.662583 40.012069 346.461623 113.055451 11.264 8.244663 35.347017 6.26688 90.258285-6.524342 86.052571-20.066011 116.128914-21.528869 139.707246 11.476114 18.029714 25.235749 13.582629 58.824411-8.310491 148.036754l-1.15712 4.707474c-17.030583 69.254583-21.812663 97.483337-17.441646 109.060389 20.342491 53.875566 30.997943 135.020251 30.997943 243.267291 0 281.72288-202.370194 403.745646-580.70016 400.577098z m0.36864-43.885715C944.479086 982.762057 1123.825371 874.624731 1123.825371 623.080594c0-103.41376-10.016183-179.688594-28.168777-227.766857-9.281829-24.581851-4.85376-50.721646 15.88224-135.040731l1.151269-4.686995c16.90624-68.891794 21.465966-103.328914 15.223954-112.06656-7.255771-10.156617-30.69952-9.017051-91.879131 5.248732-72.614766 16.917943-101.533989 19.29216-128.298423-0.29696C815.396571 80.88576 704.117029 43.885714 587.195246 43.885714c-112.51712 0-219.846949 34.254263-310.184229 97.186377-27.784046 19.356526-57.553189 17.870263-120.802743 4.028709l-4.61824-1.01376c-59.618743-13.110126-80.852114-13.395383-89.848685-0.662674-4.938606 6.992457-1.626697 40.433371 11.195245 105.29792l0.934766 4.722103c16.223086 81.861486 19.357989 105.940114 10.36288 127.893211C57.705326 446.083657 43.885714 515.657143 43.885714 587.195246c0 267.732114 194.014354 389.649554 543.493852 392.576731zM430.044891 740.292023c-26.95168 13.474377-59.724069 2.551223-73.199908-24.400457a54.55872 54.55872 0 0 1-5.759269-24.400457V405.645897C351.085714 375.512503 375.512503 351.085714 405.644434 351.085714c8.469943 0 16.822857 1.971931 24.400457 5.759269l285.845212 142.924068c26.95168 13.47584 37.874834 46.246766 24.400457 73.198446a54.55872 54.55872 0 0 1-24.400457 24.400457l-285.845212 142.921143zM701.037714 553.340343a10.673006 10.673006 0 0 0-4.773303-14.321372l-285.846674-142.921142A10.673006 10.673006 0 0 0 394.971429 405.642971V691.492571a10.673006 10.673006 0 0 0 15.447771 9.546606l285.845211-142.922606a10.673006 10.673006 0 0 0 4.773303-4.773302zM811.885714 394.971429c0-12.118309 9.824549-21.942857 21.942857-21.942858 12.118309 0 21.942857 9.824549 21.942858 21.942858v310.318811c0 12.118309-9.824549 21.942857-21.942858 21.942857-12.118309 0-21.942857-9.824549-21.942857-21.942857V394.971429z" fill="#0096ff" p-id="5357"></path><path d="M113.39776 198.337097l58.68544 21.865326c11.35616 4.232046 17.132983 16.866743 12.9024 28.224366a21.942857 21.942857 0 0 1-5.598354 8.38656l-12.258743 11.432228c-8.864914 8.265143-22.747429 7.779474-31.012572-1.082514a21.942857 21.942857 0 0 1-5.000045-8.758126l-17.718126-60.06784zM1069.469989 198.337097l-58.68544 21.865326c-11.35616 4.232046-17.132983 16.866743-12.9024 28.224366a21.942857 21.942857 0 0 0 5.598354 8.38656l12.258743 11.432228c8.863451 8.265143 22.747429 7.779474 31.012571-1.082514a21.942857 21.942857 0 0 0 4.998583-8.758126l17.719589-60.06784z" fill="#0096ff" p-id="5358"></path></svg>