<?xml version="1.0" standalone="no"?><!DOCTYPE svg PUBLIC "-//W3C//DTD SVG 1.1//EN" "http://www.w3.org/Graphics/SVG/1.1/DTD/svg11.dtd"><svg t="1738765330548" class="icon" viewBox="0 0 1024 1024" version="1.1" xmlns="http://www.w3.org/2000/svg" p-id="5626" xmlns:xlink="http://www.w3.org/1999/xlink" width="200" height="200"><path d="M849.096 56.512H336.157714c-65.555429 0-118.889143 53.333714-118.889143 118.889143v89.816h-41.788571c-65.555429 0-118.889143 53.333714-118.889143 118.889143v465.861714c0 65.555429 53.333714 118.889143 118.889143 118.889143h512.937143c65.555429 0 118.889143-53.333714 118.889143-118.889143v-89.816h42.204571v-0.005714c65.364571-0.225143 118.473143-53.467429 118.473143-118.884572V175.401143c0-65.556571-53.332571-118.889143-118.888-118.889143zM734.164571 849.968c0 25.224-20.522286 45.746286-45.746285 45.746286h-512.937143c-25.224 0-45.746286-20.522286-45.746286-45.746286V384.106286c0-25.225143 20.522286-45.746286 45.746286-45.746286h512.937143c25.224 0 45.746286 20.522286 45.746285 45.746286v465.861714z m160.676572-208.706286c0 25.224-20.521143 45.746286-45.745143 45.746286h-41.788571v-302.902857c0-65.555429-53.333714-118.889143-118.889143-118.889143H290.411429v-89.816c0-25.224 20.522286-45.746286 45.746285-45.746286h512.938286c25.224 0 45.745143 20.522286 45.745143 45.746286v465.861714z" fill="#0096ff" p-id="5627"></path></svg>