<?xml version="1.0" standalone="no"?><!DOCTYPE svg PUBLIC "-//W3C//DTD SVG 1.1//EN" "http://www.w3.org/Graphics/SVG/1.1/DTD/svg11.dtd"><svg t="1744099926387" class="icon" viewBox="0 0 1024 1024" version="1.1" xmlns="http://www.w3.org/2000/svg" p-id="5434" xmlns:xlink="http://www.w3.org/1999/xlink" width="200" height="200"><path d="M433.783919 384.261806H114.822417V69.721922h318.821872v314.539884h0.13963zM491.404573 13.125222A39.654925 39.654925 0 0 0 463.571656 0H84.75542a40.027271 40.027271 0 0 0-38.165538 41.656288v369.693742a40.073815 40.073815 0 0 0 37.327758 42.633698H463.571656a40.027271 40.027271 0 0 0 28.01909-13.032135 41.190855 41.190855 0 0 0 10.704968-29.41539V42.633698a42.214808 42.214808 0 0 0-10.844598-29.508476z m98.578791 941.245943h319.008045v-316.355075h-319.008045v316.355075z m349.261216-385.98391l-378.862779-0.093087a40.027271 40.027271 0 0 0-28.01909 13.032135 41.237398 41.237398 0 0 0-10.704968 29.368847v370.484978c-0.930867 22.666606 16.290169 41.702832 38.491341 42.773329h379.002409a40.120358 40.120358 0 0 0 38.258625-41.656289v-371.276214a41.190855 41.190855 0 0 0-38.165538-42.633699zM382.772419 1023.953457a326.548066 326.548066 0 0 1-311.095677-329.852643 3.304577 3.304577 0 0 0-1.070497-2.559884 3.723467 3.723467 0 0 0-2.559883-1.070497H0l105.979183-157.502659 105.979183 157.502659H144.330894a3.63038 3.63038 0 0 0-3.63038 3.630381A252.45107 252.45107 0 0 0 386.775147 948.087814 38.072451 38.072451 0 0 1 382.772419 1023.953457z m429.315759-732.126722h62.833507c1.023953 0 2.001364-0.41889 2.792601-1.25667a4.188901 4.188901 0 0 0 0.83778-2.885687 254.685151 254.685151 0 0 0-241.094496-211.911822 39.748011 39.748011 0 0 1-31.323667-37.886278c0.651607-21.921913 17.127949-37.886278 37.513931-37.886278a325.431026 325.431026 0 0 1 305.510477 288.615245c0.232717 1.861734 1.722104 3.258034 3.537294 3.258033H1023.953457l-105.979183 157.502659-105.886096-157.549202z" fill="#bfbfbf" p-id="5435"></path></svg>