<?xml version="1.0" standalone="no"?><!DOCTYPE svg PUBLIC "-//W3C//DTD SVG 1.1//EN" "http://www.w3.org/Graphics/SVG/1.1/DTD/svg11.dtd"><svg t="1739280163707" class="icon" viewBox="0 0 1024 1024" version="1.1" xmlns="http://www.w3.org/2000/svg" p-id="3348" xmlns:xlink="http://www.w3.org/1999/xlink" width="200" height="200"><path d="M853.76 974.933333H190.933333C132.650667 974.933333 85.333333 925.098667 85.333333 863.872v-382.378667c0-61.269333 47.36-111.061333 105.6-111.061333h662.784c58.197333 0 105.557333 49.792 105.557334 111.061333v382.293334c0.042667 61.312-47.317333 111.146667-105.514667 111.146666zM190.933333 428.672c-26.112 0-47.36 23.722667-47.36 52.821333v382.293334c0 29.226667 21.248 52.906667 47.36 52.906666h662.784c26.069333 0 47.274667-23.68 47.274667-52.821333v-382.378667c0-29.141333-21.205333-52.821333-47.274667-52.821333H190.933333z m547.626667-31.402667a29.141333 29.141333 0 0 1-29.141333-29.141333V283.776c-1.194667-86.314667-78.378667-182.826667-187.093334-182.826667-103.168 0-187.093333 92.928-187.093333 207.189334V363.946667a29.141333 29.141333 0 0 1-58.24 0V308.138667C276.992 161.706667 387.072 42.666667 522.325333 42.666667c128.938667 0 243.626667 112.469333 245.333334 240.682666v84.778667a29.141333 29.141333 0 0 1-29.098667 29.141333z m-216.234667 407.253334a131.242667 131.242667 0 0 1-131.072-131.114667 131.242667 131.242667 0 0 1 131.072-131.114667 131.285333 131.285333 0 0 1 131.114667 131.114667 131.285333 131.285333 0 0 1-131.114667 131.114667z m0-203.946667a72.96 72.96 0 0 0-72.832 72.832c0 40.106667 32.682667 72.832 72.832 72.832a72.96 72.96 0 0 0 72.832-72.832 72.96 72.96 0 0 0-72.832-72.832z" fill="#333333" p-id="3349"></path></svg>