<?xml version="1.0" standalone="no"?><!DOCTYPE svg PUBLIC "-//W3C//DTD SVG 1.1//EN" "http://www.w3.org/Graphics/SVG/1.1/DTD/svg11.dtd"><svg t="1741439617386" class="icon" viewBox="0 0 1024 1024" version="1.1" xmlns="http://www.w3.org/2000/svg" p-id="5545" xmlns:xlink="http://www.w3.org/1999/xlink" width="200" height="200"><path d="M706.56 102.172444a10.012444 10.012444 0 0 1 9.671111-9.216h1.137778c5.063111 0 9.216 3.982222 9.671111 8.988445a181.077333 181.077333 0 0 0 162.816 163.498667 9.784889 9.784889 0 0 1 8.817778 9.671111 9.614222 9.614222 0 0 1-8.817778 9.671111 181.475556 181.475556 0 0 0-162.816 163.271111 9.784889 9.784889 0 0 1-9.671111 8.988444h-0.853333a9.614222 9.614222 0 0 1-9.671112-8.817777 181.418667 181.418667 0 0 0-163.100444-163.271112 9.784889 9.784889 0 0 1-8.988444-9.671111c0-5.006222 3.754667-9.159111 8.760888-9.671111a181.646222 181.646222 0 0 0 163.100445-163.441778z" p-id="5546" fill="#bfbfbf"></path><path d="M492.088889 147.854222a344.177778 344.177778 0 1 0 209.066667 617.585778l154.168888 154.168889a45.511111 45.511111 0 0 0 64.284445-64.398222l-154.112-154.168889a342.641778 342.641778 0 0 0 69.973333-186.026667 45.511111 45.511111 0 0 0-90.794666-6.030222 252.188444 252.188444 0 0 1-73.557334 162.019555A253.155556 253.155556 0 1 1 492.088889 238.819556a45.511111 45.511111 0 1 0 0-91.022223z" p-id="5547" fill="#bfbfbf"></path></svg>