<?xml version="1.0" standalone="no"?><!DOCTYPE svg PUBLIC "-//W3C//DTD SVG 1.1//EN" "http://www.w3.org/Graphics/SVG/1.1/DTD/svg11.dtd"><svg t="1743772697333" class="icon" viewBox="0 0 1024 1024" version="1.1" xmlns="http://www.w3.org/2000/svg" p-id="5465" xmlns:xlink="http://www.w3.org/1999/xlink" width="200" height="200"><path d="M981.333333 162.133333C972.8 93.866667 908.8 42.666667 840.533333 42.666667H230.4c-64 0-119.466667 46.933333-128 110.933333l-59.733333 384c-4.266667 38.4 4.266667 76.8 29.866666 102.4 25.6 29.866667 59.733333 42.666667 98.133334 42.666667h213.333333v132.266666c0 76.8 51.2 145.066667 123.733333 166.4 8.533333 0 12.8 4.266667 21.333334 4.266667 29.866667 0 64-21.333333 76.8-51.2l145.066666-332.8h89.6c68.266667 0 132.266667-55.466667 140.8-128V170.666667v-8.533334zM533.333333 896c-38.4-8.533333-64-42.666667-64-81.066667V640c0-25.6-17.066667-42.666667-42.666666-42.666667H170.666667c-12.8 0-25.6-4.266667-34.133334-12.8-4.266667-12.8-8.533333-25.6-8.533333-38.4l59.733333-384c4.266667-17.066667 21.333333-34.133333 42.666667-34.133333H682.666667v418.133333L533.333333 896zM896 460.8c-4.266667 29.866667-29.866667 51.2-55.466667 51.2H768V128h72.533333c29.866667 0 51.2 17.066667 55.466667 46.933333v285.866667z" p-id="5466" fill="#3583ff"></path></svg>